<svg width="700" height="700" viewBox="0 0 700 700" fill="none" xmlns="http://www.w3.org/2000/svg">
<rect width="700" height="700" fill="#F5F5F5"/>
<g clip-path="url(#clip0_0_1)">
<rect width="700" height="700" fill="white"/>
<rect width="700" height="700" fill="url(#paint0_radial_0_1)"/>
<g filter="url(#filter0_d_0_1)">
<path fill-rule="evenodd" clip-rule="evenodd" d="M149 155L256.5 80L276.5 91V209H342.5V185H305.5L298.5 178V132.5L305.5 125.5H463C519.5 125.5 630.5 155.5 630.5 311.5C630.5 467.5 518.833 506.5 463 506.5H305.5L298 499V453.5L305.5 446H342.5V303.5H276.5V523C276.833 527.333 283.1 536.1 305.5 536.5C327.9 536.9 347.833 531.333 355 528.5L371 541V621C361.333 625.667 328.9 635 276.5 635C224.1 635 149 614 149 536.5V303.5H97L83 289.5V222.5L97 208.5H149V155ZM405.5 185H462.5C497 185 566 207.1 566 313.5C566 419.9 500 445.5 462.5 445.5H405.5V185Z" fill="#232176"/>
<path d="M256.5 80L256.741 79.5619L256.469 79.4122L256.214 79.5899L256.5 80ZM149 155L148.714 154.59L148.5 154.739V155H149ZM276.5 91H277V90.7044L276.741 90.5619L276.5 91ZM276.5 209H276V209.5H276.5V209ZM342.5 209V209.5H343V209H342.5ZM342.5 185H343V184.5H342.5V185ZM305.5 185L305.146 185.354L305.293 185.5H305.5V185ZM298.5 178H298V178.207L298.146 178.354L298.5 178ZM298.5 132.5L298.146 132.146L298 132.293V132.5H298.5ZM305.5 125.5V125H305.293L305.146 125.146L305.5 125.5ZM305.5 506.5L305.146 506.854L305.293 507H305.5V506.5ZM298 499H297.5V499.207L297.646 499.354L298 499ZM298 453.5L297.646 453.146L297.5 453.293V453.5H298ZM305.5 446V445.5H305.293L305.146 445.646L305.5 446ZM342.5 446V446.5H343V446H342.5ZM342.5 303.5H343V303H342.5V303.5ZM276.5 303.5V303H276V303.5H276.5ZM276.5 523H276V523.019L276.001 523.038L276.5 523ZM355 528.5L355.308 528.106L355.082 527.93L354.816 528.035L355 528.5ZM371 541H371.5V540.756L371.308 540.606L371 541ZM371 621L371.217 621.45L371.5 621.314V621H371ZM149 303.5H149.5V303H149V303.5ZM97 303.5L96.6464 303.854L96.7929 304H97V303.5ZM83 289.5H82.5V289.707L82.6464 289.854L83 289.5ZM83 222.5L82.6464 222.146L82.5 222.293V222.5H83ZM97 208.5V208H96.7929L96.6464 208.146L97 208.5ZM149 208.5V209H149.5V208.5H149ZM405.5 185V184.5H405V185H405.5ZM405.5 445.5H405V446H405.5V445.5ZM256.214 79.5899L148.714 154.59L149.286 155.41L256.786 80.4101L256.214 79.5899ZM276.741 90.5619L256.741 79.5619L256.259 80.4381L276.259 91.4381L276.741 90.5619ZM277 209V91H276V209H277ZM342.5 208.5H276.5V209.5H342.5V208.5ZM342 185V209H343V185H342ZM305.5 185.5H342.5V184.5H305.5V185.5ZM298.146 178.354L305.146 185.354L305.854 184.646L298.854 177.646L298.146 178.354ZM298 132.5V178H299V132.5H298ZM305.146 125.146L298.146 132.146L298.854 132.854L305.854 125.854L305.146 125.146ZM463 125H305.5V126H463V125ZM631 311.5C631 233.367 603.194 186.712 568.244 159.605C533.317 132.516 491.322 125 463 125V126C491.178 126 532.933 133.484 567.631 160.395C602.306 187.288 630 233.633 630 311.5H631ZM463 507C491.014 507 533.008 497.221 568.009 467.883C603.029 438.529 631 389.633 631 311.5H630C630 389.367 602.138 437.971 567.366 467.117C532.575 496.279 490.82 506 463 506V507ZM305.5 507H463V506H305.5V507ZM297.646 499.354L305.146 506.854L305.854 506.146L298.354 498.646L297.646 499.354ZM297.5 453.5V499H298.5V453.5H297.5ZM305.146 445.646L297.646 453.146L298.354 453.854L305.854 446.354L305.146 445.646ZM342.5 445.5H305.5V446.5H342.5V445.5ZM342 303.5V446H343V303.5H342ZM276.5 304H342.5V303H276.5V304ZM277 523V303.5H276V523H277ZM305.509 536C283.176 535.601 277.3 526.884 276.999 522.962L276.001 523.038C276.366 527.783 283.024 536.599 305.491 537L305.509 536ZM354.816 528.035C347.702 530.848 327.834 536.399 305.509 536L305.491 537C327.966 537.401 347.965 531.819 355.184 528.965L354.816 528.035ZM371.308 540.606L355.308 528.106L354.692 528.894L370.692 541.394L371.308 540.606ZM371.5 621V541H370.5V621H371.5ZM276.5 635.5C328.943 635.5 361.459 626.161 371.217 621.45L370.783 620.55C361.208 625.172 328.857 634.5 276.5 634.5V635.5ZM148.5 536.5C148.5 575.449 167.388 600.228 192.846 615.243C218.275 630.242 250.248 635.5 276.5 635.5V634.5C250.352 634.5 218.575 629.258 193.354 614.382C168.162 599.522 149.5 575.051 149.5 536.5H148.5ZM148.5 303.5V536.5H149.5V303.5H148.5ZM97 304H149V303H97V304ZM82.6464 289.854L96.6464 303.854L97.3536 303.146L83.3536 289.146L82.6464 289.854ZM82.5 222.5V289.5H83.5V222.5H82.5ZM96.6464 208.146L82.6464 222.146L83.3536 222.854L97.3536 208.854L96.6464 208.146ZM149 208H97V209H149V208ZM148.5 155V208.5H149.5V155H148.5ZM462.5 184.5H405.5V185.5H462.5V184.5ZM566.5 313.5C566.5 260.183 549.207 227.91 527.516 208.973C505.842 190.051 479.841 184.5 462.5 184.5V185.5C479.659 185.5 505.408 190.999 526.859 209.727C548.293 228.44 565.5 260.417 565.5 313.5H566.5ZM462.5 446C481.351 446 507.356 439.568 528.653 419.766C549.962 399.953 566.5 366.809 566.5 313.5H565.5C565.5 366.591 549.038 399.447 527.972 419.034C506.894 438.632 481.149 445 462.5 445V446ZM405.5 446H462.5V445H405.5V446ZM405 185V445.5H406V185H405Z" fill="white"/>
</g>
</g>
<defs>
<filter id="filter0_d_0_1" x="79.5" y="76.4122" width="554.5" height="562.088" filterUnits="userSpaceOnUse" color-interpolation-filters="sRGB">
<feFlood flood-opacity="0" result="BackgroundImageFix"/>
<feColorMatrix in="SourceAlpha" type="matrix" values="0 0 0 0 0 0 0 0 0 0 0 0 0 0 0 0 0 0 127 0" result="hardAlpha"/>
<feOffset/>
<feGaussianBlur stdDeviation="1.5"/>
<feColorMatrix type="matrix" values="0 0 0 0 1 0 0 0 0 1 0 0 0 0 1 0 0 0 1 0"/>
<feBlend mode="normal" in2="BackgroundImageFix" result="effect1_dropShadow_0_1"/>
<feBlend mode="normal" in="SourceGraphic" in2="effect1_dropShadow_0_1" result="shape"/>
</filter>
<radialGradient id="paint0_radial_0_1" cx="0" cy="0" r="1" gradientUnits="userSpaceOnUse" gradientTransform="rotate(45) scale(989.949)">
<stop stop-color="#C2D2F4"/>
<stop offset="0.578125" stop-color="#6070CD"/>
<stop offset="1" stop-color="#0D0B6F"/>
</radialGradient>
<clipPath id="clip0_0_1">
<rect width="700" height="700" fill="white"/>
</clipPath>
</defs>
</svg>
