<svg width="555" height="563" viewBox="0 0 555 563" fill="none" xmlns="http://www.w3.org/2000/svg">
<g filter="url(#filter0_d_1_8)">
<path fill-rule="evenodd" clip-rule="evenodd" d="M70 79L177.5 4L197.5 15V133H263.5V109H226.5L219.5 102V56.5L226.5 49.5H384C440.5 49.5 551.5 79.5 551.5 235.5C551.5 391.5 439.833 430.5 384 430.5H226.5L219 423V377.5L226.5 370H263.5V227.5H197.5V447C197.833 451.333 204.1 460.1 226.5 460.5C248.9 460.9 268.833 455.333 276 452.5L292 465V545C282.333 549.667 249.9 559 197.5 559C145.1 559 70 538 70 460.5V227.5H18L4 213.5V146.5L18 132.5H70V79ZM326.5 109H383.5C418 109 487 131.1 487 237.5C487 343.9 421 369.5 383.5 369.5H326.5V109Z" fill="#232176"/>
<path d="M177.5 4L177.741 3.56189L177.469 3.41216L177.214 3.58994L177.5 4ZM70 79L69.7139 78.5899L69.5 78.7392V79H70ZM197.5 15H198V14.7044L197.741 14.5619L197.5 15ZM197.5 133H197V133.5H197.5V133ZM263.5 133V133.5H264V133H263.5ZM263.5 109H264V108.5H263.5V109ZM226.5 109L226.146 109.354L226.293 109.5H226.5V109ZM219.5 102H219V102.207L219.146 102.354L219.5 102ZM219.5 56.5L219.146 56.1464L219 56.2929V56.5H219.5ZM226.5 49.5V49H226.293L226.146 49.1464L226.5 49.5ZM226.5 430.5L226.146 430.854L226.293 431H226.5V430.5ZM219 423H218.5V423.207L218.646 423.354L219 423ZM219 377.5L218.646 377.146L218.5 377.293V377.5H219ZM226.5 370V369.5H226.293L226.146 369.646L226.5 370ZM263.5 370V370.5H264V370H263.5ZM263.5 227.5H264V227H263.5V227.5ZM197.5 227.5V227H197V227.5H197.5ZM197.5 447H197V447.019L197.001 447.038L197.5 447ZM276 452.5L276.308 452.106L276.082 451.93L275.816 452.035L276 452.5ZM292 465H292.5V464.756L292.308 464.606L292 465ZM292 545L292.217 545.45L292.5 545.314V545H292ZM70 227.5H70.5V227H70V227.5ZM18 227.5L17.6464 227.854L17.7929 228H18V227.5ZM4 213.5H3.5V213.707L3.64645 213.854L4 213.5ZM4 146.5L3.64645 146.146L3.5 146.293V146.5H4ZM18 132.5V132H17.7929L17.6464 132.146L18 132.5ZM70 132.5V133H70.5V132.5H70ZM326.5 109V108.5H326V109H326.5ZM326.5 369.5H326V370H326.5V369.5ZM177.214 3.58994L69.7139 78.5899L70.2861 79.4101L177.786 4.41006L177.214 3.58994ZM197.741 14.5619L177.741 3.56189L177.259 4.43811L197.259 15.4381L197.741 14.5619ZM198 133V15H197V133H198ZM263.5 132.5H197.5V133.5H263.5V132.5ZM263 109V133H264V109H263ZM226.5 109.5H263.5V108.5H226.5V109.5ZM219.146 102.354L226.146 109.354L226.854 108.646L219.854 101.646L219.146 102.354ZM219 56.5V102H220V56.5H219ZM226.146 49.1464L219.146 56.1464L219.854 56.8536L226.854 49.8536L226.146 49.1464ZM384 49H226.5V50H384V49ZM552 235.5C552 157.367 524.194 110.712 489.244 83.6049C454.317 56.5165 412.322 49 384 49V50C412.178 50 453.933 57.4835 488.631 84.3951C523.306 111.288 551 157.633 551 235.5H552ZM384 431C412.014 431 454.008 421.221 489.009 391.883C524.029 362.529 552 313.633 552 235.5H551C551 313.367 523.138 361.971 488.366 391.117C453.575 420.279 411.82 430 384 430V431ZM226.5 431H384V430H226.5V431ZM218.646 423.354L226.146 430.854L226.854 430.146L219.354 422.646L218.646 423.354ZM218.5 377.5V423H219.5V377.5H218.5ZM226.146 369.646L218.646 377.146L219.354 377.854L226.854 370.354L226.146 369.646ZM263.5 369.5H226.5V370.5H263.5V369.5ZM263 227.5V370H264V227.5H263ZM197.5 228H263.5V227H197.5V228ZM198 447V227.5H197V447H198ZM226.509 460C204.176 459.601 198.3 450.884 197.999 446.962L197.001 447.038C197.366 451.783 204.024 460.599 226.491 461L226.509 460ZM275.816 452.035C268.702 454.848 248.834 460.399 226.509 460L226.491 461C248.966 461.401 268.965 455.819 276.184 452.965L275.816 452.035ZM292.308 464.606L276.308 452.106L275.692 452.894L291.692 465.394L292.308 464.606ZM292.5 545V465H291.5V545H292.5ZM197.5 559.5C249.943 559.5 282.459 550.161 292.217 545.45L291.783 544.55C282.208 549.172 249.857 558.5 197.5 558.5V559.5ZM69.5 460.5C69.5 499.449 88.3885 524.228 113.846 539.243C139.275 554.242 171.248 559.5 197.5 559.5V558.5C171.352 558.5 139.575 553.258 114.354 538.382C89.1615 523.522 70.5 499.051 70.5 460.5H69.5ZM69.5 227.5V460.5H70.5V227.5H69.5ZM18 228H70V227H18V228ZM3.64645 213.854L17.6464 227.854L18.3536 227.146L4.35355 213.146L3.64645 213.854ZM3.5 146.5V213.5H4.5V146.5H3.5ZM17.6464 132.146L3.64645 146.146L4.35355 146.854L18.3536 132.854L17.6464 132.146ZM70 132H18V133H70V132ZM69.5 79V132.5H70.5V79H69.5ZM383.5 108.5H326.5V109.5H383.5V108.5ZM487.5 237.5C487.5 184.183 470.207 151.91 448.516 132.973C426.842 114.051 400.841 108.5 383.5 108.5V109.5C400.659 109.5 426.408 114.999 447.859 133.727C469.293 152.44 486.5 184.417 486.5 237.5H487.5ZM383.5 370C402.351 370 428.356 363.568 449.653 343.766C470.962 323.953 487.5 290.809 487.5 237.5H486.5C486.5 290.591 470.038 323.447 448.972 343.034C427.894 362.632 402.149 369 383.5 369V370ZM326.5 370H383.5V369H326.5V370ZM326 109V369.5H327V109H326Z" fill="white"/>
</g>
<defs>
<filter id="filter0_d_1_8" x="0.5" y="0.412155" width="554.5" height="562.088" filterUnits="userSpaceOnUse" color-interpolation-filters="sRGB">
<feFlood flood-opacity="0" result="BackgroundImageFix"/>
<feColorMatrix in="SourceAlpha" type="matrix" values="0 0 0 0 0 0 0 0 0 0 0 0 0 0 0 0 0 0 127 0" result="hardAlpha"/>
<feOffset/>
<feGaussianBlur stdDeviation="1.5"/>
<feColorMatrix type="matrix" values="0 0 0 0 1 0 0 0 0 1 0 0 0 0 1 0 0 0 1 0"/>
<feBlend mode="normal" in2="BackgroundImageFix" result="effect1_dropShadow_1_8"/>
<feBlend mode="normal" in="SourceGraphic" in2="effect1_dropShadow_1_8" result="shape"/>
</filter>
</defs>
</svg>
